<svg width="24" height="24" viewBox="0 0 24 24" fill="none" xmlns="http://www.w3.org/2000/svg">
    <g clip-path="url(#clip0_645_46)">
        <path
            d="M9 5H18C18.5304 5 19.0391 5.21071 19.4142 5.58579C19.7893 5.96086 20 6.46957 20 7V16M19.816 19.839C19.6558 20.1857 19.3996 20.4793 19.0778 20.6851C18.756 20.8908 18.382 21.0001 18 21H6C5.46957 21 4.96086 20.7893 4.58579 20.4142C4.21071 20.0391 4 19.5304 4 19V7C3.99983 6.61853 4.10876 6.24498 4.31394 5.92339C4.51912 5.6018 4.81199 5.3456 5.158 5.185"
            stroke="white" strokeWidth="2" strokeLinecap="round" strokeLinejoin="round" />
        <path d="M16 3V7" stroke="white" strokeWidth="2" strokeLinecap="round"
            strokeLinejoin="round" />
        <path d="M8 3V4" stroke="white" strokeWidth="2" strokeLinecap="round"
            strokeLinejoin="round" />
        <path d="M4 11H11M15 11H20" stroke="white" strokeWidth="2" strokeLinecap="round"
            strokeLinejoin="round" />
        <path d="M3 3L21 21" stroke="#E74694" strokeWidth="2" strokeLinecap="round"
            strokeLinejoin="round" />
    </g>
    <defs>
        <clipPath id="clip0_645_46">
            <rect width="24" height="24" fill="white" />
        </clipPath>
    </defs>
</svg>