<svg width="44" height="44" viewBox="0 0 44 44" fill="none" xmlns="http://www.w3.org/2000/svg">
<g clip-path="url(#clip0_5_466)">
<path d="M22 5.5C25.5163 5.5 28.4533 7.975 29.1683 11.2768C31.0459 10.7687 33.0484 11.0273 34.7354 11.9956C36.4223 12.964 37.6555 14.5628 38.1636 16.4404C38.6717 18.318 38.4131 20.3205 37.4448 22.0075C36.4764 23.6944 34.8776 24.9276 33 25.4357V38.5H11V25.4357C10.0703 25.1838 9.19935 24.7514 8.43681 24.1629C7.67427 23.5745 7.03509 22.8416 6.55578 22.0062C6.07647 21.1707 5.7664 20.249 5.64329 19.2937C5.52018 18.3384 5.58643 17.3683 5.83826 16.4386C6.09009 15.5089 6.52257 14.6379 7.11101 13.8754C7.69944 13.1128 8.43231 12.4737 9.26777 11.9944C10.1032 11.515 11.0249 11.205 11.9802 11.0819C12.9355 10.9588 13.9057 11.025 14.8353 11.2768C15.1907 9.64071 16.0952 8.17544 17.3986 7.12453C18.702 6.07363 20.3257 5.50036 22 5.5Z" stroke="white" stroke-width="2.75" stroke-linecap="round" stroke-linejoin="round"/>
<path d="M11.2952 31.1832L33 31.1667" stroke="white" stroke-width="2.75" stroke-linecap="round" stroke-linejoin="round"/>
</g>
<defs>
<clipPath id="clip0_5_466">
<rect width="44" height="44" fill="white"/>
</clipPath>
</defs>
</svg>
