<svg width="44" height="44" viewBox="0 0 44 44" fill="none" xmlns="http://www.w3.org/2000/svg">
<path d="M24.7498 38.5H10.9998C10.5136 38.5 10.0473 38.3068 9.70348 37.963C9.35966 37.6192 9.1665 37.1529 9.1665 36.6667V7.33333C9.1665 6.8471 9.35966 6.38079 9.70348 6.03697C10.0473 5.69315 10.5136 5.5 10.9998 5.5H32.9998C33.4861 5.5 33.9524 5.69315 34.2962 6.03697C34.64 6.38079 34.8332 6.8471 34.8332 7.33333V22" stroke="white" stroke-width="2.75" stroke-linecap="round" stroke-linejoin="round"/>
<path d="M34.8332 29.3333L31.1665 34.8333H38.4998L34.8332 40.3333" stroke="#FFDA58" stroke-width="2.75" stroke-linecap="round" stroke-linejoin="round"/>
<path d="M20.1665 31.1666C20.1665 31.6528 20.3597 32.1191 20.7035 32.4629C21.0473 32.8068 21.5136 32.9999 21.9998 32.9999C22.4861 32.9999 22.9524 32.8068 23.2962 32.4629C23.64 32.1191 23.8332 31.6528 23.8332 31.1666C23.8332 30.6804 23.64 30.214 23.2962 29.8702C22.9524 29.5264 22.4861 29.3333 21.9998 29.3333C21.5136 29.3333 21.0473 29.5264 20.7035 29.8702C20.3597 30.214 20.1665 30.6804 20.1665 31.1666Z" stroke="white" stroke-width="2.75" stroke-linecap="round" stroke-linejoin="round"/>
</svg>
