<svg width="542" height="230" viewBox="0 0 542 230" fill="none" xmlns="http://www.w3.org/2000/svg">
<path d="M170.01 114.6C166.33 114.6 163.09 114.16 160.29 113.28C157.49 112.48 154.93 111.32 152.61 109.8C150.37 108.28 148.21 106.56 146.13 104.64L152.61 97.08C155.25 99.56 157.93 101.48 160.65 102.84C163.37 104.2 166.41 104.88 169.77 104.88C173.53 104.88 176.69 104.24 179.25 102.96C181.89 101.76 183.89 100.04 185.25 97.8C186.61 95.64 187.29 93.12 187.29 90.24L187.41 76.8L188.37 78.96C186.93 82.4 184.33 85.32 180.57 87.72C176.81 90.04 172.25 91.2 166.89 91.2C162.33 91.2 158.13 90.04 154.29 87.72C150.53 85.4 147.49 82.28 145.17 78.36C142.93 74.36 141.81 69.88 141.81 64.92C141.81 59.72 143.01 55.16 145.41 51.24C147.81 47.24 150.97 44.08 154.89 41.76C158.81 39.44 163.09 38.28 167.73 38.28C172.13 38.28 176.13 39.2 179.73 41.04C183.41 42.8 186.09 45.08 187.77 47.88L187.17 49.92L188.37 40.32H198.57V90.36C198.57 94.84 197.41 98.92 195.09 102.6C192.77 106.28 189.49 109.2 185.25 111.36C181.01 113.52 175.93 114.6 170.01 114.6ZM152.97 64.68C152.97 67.88 153.73 70.8 155.25 73.44C156.77 76.08 158.81 78.16 161.37 79.68C164.01 81.2 166.93 81.96 170.13 81.96C173.09 81.96 175.73 81.44 178.05 80.4C180.45 79.28 182.45 77.8 184.05 75.96C185.65 74.04 186.77 71.84 187.41 69.36V59.52C186.69 57.12 185.49 55.04 183.81 53.28C182.13 51.44 180.13 50.04 177.81 49.08C175.49 48.04 172.93 47.52 170.13 47.52C166.93 47.52 164.01 48.24 161.37 49.68C158.81 51.12 156.77 53.16 155.25 55.8C153.73 58.36 152.97 61.32 152.97 64.68ZM238.489 91.2C233.849 91.2 229.609 90.2 225.769 88.2C222.009 86.2 219.009 83.28 216.769 79.44C214.609 75.52 213.529 70.76 213.529 65.16C213.529 59.64 214.689 54.88 217.009 50.88C219.329 46.8 222.409 43.68 226.249 41.52C230.169 39.36 234.449 38.28 239.089 38.28C243.729 38.28 247.649 39.36 250.849 41.52C254.049 43.6 256.489 46.08 258.169 48.96L257.449 50.88L258.529 40.32H268.849V90H257.689V77.04L258.889 79.92C258.569 80.72 257.849 81.76 256.729 83.04C255.689 84.24 254.249 85.48 252.409 86.76C250.649 88.04 248.609 89.12 246.289 90C243.969 90.8 241.369 91.2 238.489 91.2ZM241.489 81.96C244.289 81.96 246.809 81.44 249.049 80.4C251.289 79.36 253.129 77.92 254.569 76.08C256.089 74.16 257.129 71.88 257.689 69.24V59.52C257.049 57.12 255.929 55.04 254.329 53.28C252.729 51.44 250.809 50.04 248.569 49.08C246.329 48.04 243.849 47.52 241.129 47.52C238.169 47.52 235.449 48.24 232.969 49.68C230.489 51.12 228.489 53.12 226.969 55.68C225.529 58.24 224.809 61.24 224.809 64.68C224.809 67.88 225.569 70.8 227.089 73.44C228.609 76.08 230.649 78.16 233.209 79.68C235.769 81.2 238.529 81.96 241.489 81.96ZM298.121 40.32L299.201 54.72L298.601 52.8C299.881 49.76 301.721 47.2 304.121 45.12C306.601 42.96 309.161 41.32 311.801 40.2C314.521 39 316.881 38.4 318.881 38.4L318.281 49.44C314.521 49.2 311.201 49.92 308.321 51.6C305.521 53.28 303.281 55.52 301.601 58.32C300.001 61.12 299.201 64.12 299.201 67.32V90H288.161V40.32H298.121ZM371.489 85.44C369.249 87.2 366.569 88.6 363.449 89.64C360.329 90.68 357.209 91.2 354.089 91.2C348.649 91.2 343.889 90.12 339.809 87.96C335.729 85.8 332.529 82.8 330.209 78.96C327.969 75.04 326.849 70.44 326.849 65.16C326.849 59.88 328.049 55.28 330.449 51.36C332.929 47.44 336.129 44.44 340.049 42.36C344.049 40.2 348.329 39.12 352.889 39.12C356.889 39.12 360.449 39.68 363.569 40.8C366.769 41.92 369.489 43.44 371.729 45.36L366.209 52.56C364.769 51.44 363.009 50.44 360.929 49.56C358.849 48.68 356.489 48.24 353.849 48.24C350.969 48.24 348.289 49 345.809 50.52C343.409 51.96 341.489 53.96 340.049 56.52C338.689 59.08 338.009 61.96 338.009 65.16C338.009 68.2 338.729 71.04 340.169 73.68C341.609 76.24 343.609 78.28 346.169 79.8C348.729 81.24 351.649 81.96 354.929 81.96C357.089 81.96 359.049 81.64 360.809 81C362.649 80.36 364.289 79.48 365.729 78.36L371.489 85.44ZM339.209 108.24C340.089 109.12 341.209 109.84 342.569 110.4C343.929 111.04 345.489 111.36 347.249 111.36C349.329 111.36 351.209 110.88 352.889 109.92C354.569 109.04 355.409 107.72 355.409 105.96C355.409 104.6 354.849 103.32 353.729 102.12C352.609 101 350.569 100.44 347.609 100.44C346.329 100.44 344.969 100.6 343.529 100.92C342.089 101.24 340.849 101.6 339.809 102L337.769 96.6L346.169 88.8L354.689 89.28L346.049 99.36L343.409 96.6C344.289 96.2 345.369 95.88 346.649 95.64C347.929 95.48 349.169 95.36 350.369 95.28C354.609 95.2 358.089 96.04 360.809 97.8C363.529 99.56 364.889 102.2 364.889 105.72C364.889 108.44 364.089 110.64 362.489 112.32C360.969 114.08 358.969 115.36 356.489 116.16C354.009 117.04 351.289 117.48 348.329 117.48C345.369 117.48 342.809 117 340.649 116.04C338.569 115.16 336.889 114.12 335.609 112.92L339.209 108.24ZM381.576 64.68C381.576 59.72 382.736 55.24 385.056 51.24C387.456 47.24 390.736 44.08 394.896 41.76C399.056 39.44 403.776 38.28 409.056 38.28C414.496 38.28 419.256 39.44 423.336 41.76C427.416 44.08 430.576 47.24 432.816 51.24C435.056 55.24 436.176 59.72 436.176 64.68C436.176 69.64 435.056 74.16 432.816 78.24C430.576 82.24 427.376 85.4 423.216 87.72C419.136 90.04 414.376 91.2 408.936 91.2C403.656 91.2 398.936 90.12 394.776 87.96C390.696 85.72 387.456 82.64 385.056 78.72C382.736 74.72 381.576 70.04 381.576 64.68ZM392.736 64.8C392.736 68 393.456 70.92 394.896 73.56C396.336 76.12 398.256 78.16 400.656 79.68C403.136 81.2 405.856 81.96 408.816 81.96C411.936 81.96 414.696 81.2 417.096 79.68C419.576 78.16 421.496 76.12 422.856 73.56C424.216 70.92 424.896 68 424.896 64.8C424.896 61.6 424.216 58.72 422.856 56.16C421.496 53.52 419.576 51.44 417.096 49.92C414.696 48.32 411.936 47.52 408.816 47.52C405.776 47.52 403.016 48.32 400.536 49.92C398.136 51.52 396.216 53.64 394.776 56.28C393.416 58.84 392.736 61.68 392.736 64.8ZM461.246 40.32L462.206 51.48L461.726 50.52C463.566 46.76 466.166 43.8 469.526 41.64C472.966 39.48 476.886 38.4 481.286 38.4C484.086 38.4 486.566 38.84 488.726 39.72C490.886 40.6 492.646 41.88 494.006 43.56C495.446 45.16 496.366 47.16 496.766 49.56L496.166 49.92C498.086 46.32 500.726 43.52 504.086 41.52C507.526 39.44 511.126 38.4 514.886 38.4C519.766 38.4 523.606 39.8 526.406 42.6C529.286 45.32 530.766 48.88 530.846 53.28V90H519.686V57.24C519.606 54.68 518.966 52.56 517.766 50.88C516.646 49.12 514.646 48.16 511.766 48C508.886 48 506.286 48.88 503.966 50.64C501.726 52.4 499.966 54.68 498.686 57.48C497.406 60.2 496.726 63.16 496.646 66.36V90H485.486V57.24C485.406 54.68 484.726 52.56 483.446 50.88C482.246 49.12 480.206 48.16 477.326 48C474.366 48 471.766 48.88 469.526 50.64C467.286 52.4 465.526 54.68 464.246 57.48C463.046 60.28 462.446 63.28 462.446 66.48V90H451.286V40.32H461.246Z" fill="#F43F5E"/>
<path d="M160.118 136.34L161.378 149.78L160.818 147.96C162.778 143.76 165.811 140.4 169.918 137.88C174.024 135.267 178.878 133.96 184.478 133.96C189.984 133.96 194.511 135.593 198.058 138.86C201.698 142.127 203.564 146.373 203.658 151.6V195H189.238V156.64C189.144 153.653 188.258 151.227 186.578 149.36C184.898 147.4 182.284 146.373 178.738 146.28C175.564 146.28 172.671 147.26 170.058 149.22C167.444 151.087 165.391 153.653 163.898 156.92C162.404 160.187 161.658 163.967 161.658 168.26V195H147.238V136.34H160.118ZM250.214 196.4C244.708 196.4 239.714 195.28 235.234 193.04C230.754 190.707 227.208 187.253 224.594 182.68C221.981 178.107 220.674 172.46 220.674 165.74C220.674 159.113 222.028 153.42 224.734 148.66C227.534 143.9 231.174 140.26 235.654 137.74C240.228 135.127 245.174 133.82 250.494 133.82C256.094 133.82 260.668 135.033 264.214 137.46C267.854 139.793 270.701 142.547 272.754 145.72L271.774 147.96L273.174 136.34H286.474V195H272.054V180.3L273.594 183.8C273.221 184.547 272.428 185.62 271.214 187.02C270.001 188.327 268.368 189.727 266.314 191.22C264.354 192.713 262.021 193.973 259.314 195C256.701 195.933 253.668 196.4 250.214 196.4ZM254.134 184.64C257.214 184.64 259.968 184.08 262.394 182.96C264.821 181.84 266.874 180.253 268.554 178.2C270.234 176.147 271.401 173.72 272.054 170.92V158.74C271.308 156.127 270.048 153.887 268.274 152.02C266.501 150.06 264.354 148.52 261.834 147.4C259.408 146.28 256.701 145.72 253.714 145.72C250.354 145.72 247.274 146.56 244.474 148.24C241.674 149.827 239.434 152.067 237.754 154.96C236.074 157.853 235.234 161.213 235.234 165.04C235.234 168.68 236.074 171.993 237.754 174.98C239.528 177.967 241.861 180.347 244.754 182.12C247.648 183.8 250.774 184.64 254.134 184.64ZM314.166 110.58H328.586V136.48H344.266V147.82H328.586V195H314.166V147.82H303.806V136.48H314.166V110.58ZM387.415 196.4C380.602 196.4 374.769 195.093 369.915 192.48C365.062 189.773 361.329 186.087 358.715 181.42C356.102 176.66 354.795 171.247 354.795 165.18C354.795 159.393 356.242 154.167 359.135 149.5C362.122 144.74 366.089 140.96 371.035 138.16C376.075 135.36 381.629 133.96 387.695 133.96C395.535 133.96 402.022 136.247 407.155 140.82C412.382 145.393 415.882 151.787 417.655 160L369.915 176.52L366.555 168.12L404.775 154.4L401.835 156.22C400.715 153.327 398.942 150.807 396.515 148.66C394.089 146.42 390.775 145.3 386.575 145.3C383.215 145.3 380.182 146.14 377.475 147.82C374.862 149.407 372.762 151.647 371.175 154.54C369.682 157.34 368.935 160.653 368.935 164.48C368.935 168.4 369.729 171.853 371.315 174.84C372.995 177.733 375.235 180.02 378.035 181.7C380.929 183.38 384.149 184.22 387.695 184.22C390.215 184.22 392.595 183.753 394.835 182.82C397.169 181.887 399.362 180.72 401.415 179.32L407.995 189.96C404.915 191.92 401.555 193.507 397.915 194.72C394.369 195.84 390.869 196.4 387.415 196.4ZM433.664 86.22H448.084V195H433.664V86.22ZM494.531 196.4C489.024 196.4 484.031 195.28 479.551 193.04C475.071 190.707 471.524 187.253 468.911 182.68C466.297 178.107 464.991 172.46 464.991 165.74C464.991 159.113 466.344 153.42 469.051 148.66C471.851 143.9 475.491 140.26 479.971 137.74C484.544 135.127 489.491 133.82 494.811 133.82C500.411 133.82 504.984 135.033 508.531 137.46C512.171 139.793 515.017 142.547 517.071 145.72L516.091 147.96L517.491 136.34H530.791V195H516.371V180.3L517.911 183.8C517.537 184.547 516.744 185.62 515.531 187.02C514.317 188.327 512.684 189.727 510.631 191.22C508.671 192.713 506.337 193.973 503.631 195C501.017 195.933 497.984 196.4 494.531 196.4ZM498.451 184.64C501.531 184.64 504.284 184.08 506.711 182.96C509.137 181.84 511.191 180.253 512.871 178.2C514.551 176.147 515.717 173.72 516.371 170.92V158.74C515.624 156.127 514.364 153.887 512.591 152.02C510.817 150.06 508.671 148.52 506.151 147.4C503.724 146.28 501.017 145.72 498.031 145.72C494.671 145.72 491.591 146.56 488.791 148.24C485.991 149.827 483.751 152.067 482.071 154.96C480.391 157.853 479.551 161.213 479.551 165.04C479.551 168.68 480.391 171.993 482.071 174.98C483.844 177.967 486.177 180.347 489.071 182.12C491.964 183.8 495.091 184.64 498.451 184.64Z" fill="white"/>
<path d="M60.5 194.826L112.895 111.967H8.10546L60.5 194.826Z" fill="#D9D9D9"/>
<rect x="5.00732" y="38.5" width="112.739" height="154.826" rx="8.5" fill="#FCFCFC" stroke="black" stroke-width="3"/>
<path d="M3.50732 167.014C3.50732 165.91 4.40275 165.014 5.50732 165.014H117.246C118.351 165.014 119.246 165.91 119.246 167.014V189.826C119.246 192.587 117.008 194.826 114.246 194.826H8.50733C5.74591 194.826 3.50732 192.587 3.50732 189.826V167.014Z" fill="black"/>
<rect x="54.3623" y="142.217" width="12.2754" height="12.2754" rx="6.13768" fill="black"/>
<rect x="56.1157" y="180.797" width="8.76812" height="8.76812" rx="4.38406" fill="#F43F5E"/>
<rect x="54.3623" y="114.159" width="12.2754" height="12.2754" rx="6.13768" fill="black"/>
<path d="M59.7925 83.8031C56.633 81.8487 56.633 77.2531 59.7925 75.2987L94.0285 54.1207C97.3595 52.0601 101.659 54.456 101.659 58.3729V100.729C101.659 104.646 97.3595 107.042 94.0285 104.981L59.7925 83.8031Z" fill="black"/>
<path d="M61.5171 75.2987C64.6766 77.2531 64.6766 81.8487 61.5171 83.8031L27.2811 104.981C23.9501 107.042 19.6507 104.646 19.6507 100.729V58.3729C19.6507 54.456 23.9501 52.0601 27.2811 54.1207L61.5171 75.2987Z" fill="black"/>
<rect x="51.3716" y="71.0408" width="17.0205" height="17.0205" rx="8.51023" fill="white"/>
<path d="M60.5 175.536L55.1846 165.014H65.8154L60.5 175.536Z" fill="white"/>
</svg>
